{"asset":{"generator":"glTF-Transform v4.0.2","version":"2.0"},"accessors":[{"type":"VEC3","componentType":5126,"count":64622,"max":[34.865352630615234,36.01569747924805,24.45854377746582],"min":[-4.477889060974121,1.4604160785675049,-8.053668975830078],"bufferView":0,"byteOffset":0},{"type":"VEC3","componentType":5126,"count":64622,"bufferView":0,"byteOffset":12},{"type":"VEC4","componentType":5121,"count":64622,"normalized":true,"bufferView":0,"byteOffset":24},{"type":"SCALAR","componentType":5125,"count":359688,"bufferView":1,"byteOffset":0},{"type":"SCALAR","componentType":5125,"count":38400,"bufferView":1,"byteOffset":1438752},{"type":"SCALAR","componentType":5125,"count":3840,"bufferView":1,"byteOffset":1592352},{"type":"SCALAR","componentType":5125,"count":165120,"bufferView":1,"byteOffset":1607712},{"type":"SCALAR","componentType":5125,"count":9072,"bufferView":1,"byteOffset":2268192},{"type":"SCALAR","componentType":5125,"count":47520,"bufferView":1,"byteOffset":2304480},{"type":"SCALAR","componentType":5125,"count":3456,"bufferView":1,"byteOffset":2494560},{"type":"SCALAR","componentType":5125,"count":3840,"bufferView":1,"byteOffset":2508384},{"type":"VEC3","componentType":5126,"count":6420,"max":[13.032500267028809,32.03249740600586,5.555000305175781],"min":[8.545000076293945,28.545000076293945,-0.828000009059906],"bufferView":2,"byteOffset":0},{"type":"VEC3","componentType":5126,"count":6420,"bufferView":2,"byteOffset":12},{"type":"VEC4","componentType":5121,"count":6420,"normalized":true,"bufferView":2,"byteOffset":24},{"type":"VEC3","componentType":5126,"count":642,"max":[16.928001403808594,27.328001022338867,5.028000354766846],"min":[16.472000122070312,26.871999740600586,4.572000026702881],"bufferView":3,"byteOffset":0},{"type":"VEC3","componentType":5126,"count":642,"bufferView":3,"byteOffset":12},{"type":"VEC4","componentType":5121,"count":642,"normalized":true,"bufferView":3,"byteOffset":24},{"type":"VEC3","componentType":5126,"count":27606,"max":[20.628000259399414,34.255001068115234,10.055000305175781],"min":[12.144999504089355,22.2450008392334,-0.9549999833106995],"bufferView":4,"byteOffset":0},{"type":"VEC3","componentType":5126,"count":27606,"bufferView":4,"byteOffset":12},{"type":"VEC4","componentType":5121,"count":27606,"normalized":true,"bufferView":4,"byteOffset":24},{"type":"VEC3","componentType":5126,"count":3828,"max":[12.93390941619873,31.905351638793945,5.441880226135254],"min":[8.654950141906738,28.64276885986328,-0.6823837161064148],"bufferView":5,"byteOffset":0},{"type":"VEC3","componentType":5126,"count":3828,"bufferView":5,"byteOffset":12},{"type":"VEC4","componentType":5121,"count":3828,"normalized":true,"bufferView":5,"byteOffset":24},{"type":"VEC3","componentType":5126,"count":20312,"max":[20.487144470214844,34.16632080078125,9.851714134216309],"min":[12.245646476745605,22.4129695892334,-0.8492258787155151],"bufferView":6,"byteOffset":0},{"type":"VEC3","componentType":5126,"count":20312,"bufferView":6,"byteOffset":12},{"type":"VEC4","componentType":5121,"count":20312,"normalized":true,"bufferView":6,"byteOffset":24},{"type":"VEC3","componentType":5126,"count":1760,"max":[16.54552459716797,28.9265193939209,4.921600341796875],"min":[12.971651077270508,27.103504180908203,4.322681427001953],"bufferView":7,"byteOffset":0},{"type":"VEC3","componentType":5126,"count":1760,"bufferView":7,"byteOffset":12},{"type":"VEC4","componentType":5121,"count":1760,"normalized":true,"bufferView":7,"byteOffset":24},{"type":"VEC3","componentType":5126,"count":642,"max":[16.928001403808594,27.328001022338867,5.028000354766846],"min":[16.472000122070312,26.871999740600586,4.572000026702881],"bufferView":8,"byteOffset":0},{"type":"VEC3","componentType":5126,"count":642,"bufferView":8,"byteOffset":12},{"type":"VEC4","componentType":5121,"count":642,"normalized":true,"bufferView":8,"byteOffset":24}],"bufferViews":[{"buffer":0,"byteOffset":0,"byteLength":1809416,"byteStride":28,"target":34962},{"buffer":0,"byteOffset":1809416,"byteLength":2523744,"target":34963},{"buffer":0,"byteOffset":4333160,"byteLength":179760,"byteStride":28,"target":34962},{"buffer":0,"byteOffset":4512920,"byteLength":17976,"byteStride":28,"target":34962},{"buffer":0,"byteOffset":4530896,"byteLength":772968,"byteStride":28,"target":34962},{"buffer":0,"byteOffset":5303864,"byteLength":107184,"byteStride":28,"target":34962},{"buffer":0,"byteOffset":5411048,"byteLength":568736,"byteStride":28,"target":34962},{"buffer":0,"byteOffset":5979784,"byteLength":49280,"byteStride":28,"target":34962},{"buffer":0,"byteOffset":6029064,"byteLength":17976,"byteStride":28,"target":34962}],"buffers":[{"uri":"1MBN.bin","byteLength":6047040}],"materials":[{"doubleSided":true,"pbrMetallicRoughness":{"metallicFactor":0}}],"meshes":[{"primitives":[{"attributes":{"POSITION":0,"NORMAL":1,"COLOR_0":2},"mode":4,"material":0,"indices":3}]},{"primitives":[{"attributes":{"POSITION":11,"NORMAL":12,"COLOR_0":13},"mode":4,"material":0,"indices":4}]},{"primitives":[{"attributes":{"POSITION":14,"NORMAL":15,"COLOR_0":16},"mode":4,"material":0,"indices":5}]},{"primitives":[{"attributes":{"POSITION":17,"NORMAL":18,"COLOR_0":19},"mode":4,"material":0,"indices":6}]},{"primitives":[{"attributes":{"POSITION":20,"NORMAL":21,"COLOR_0":22},"mode":4,"material":0,"indices":7}]},{"primitives":[{"attributes":{"POSITION":23,"NORMAL":24,"COLOR_0":25},"mode":4,"material":0,"indices":8}]},{"primitives":[{"attributes":{"POSITION":26,"NORMAL":27,"COLOR_0":28},"mode":4,"material":0,"indices":9}]},{"primitives":[{"attributes":{"POSITION":29,"NORMAL":30,"COLOR_0":31},"mode":4,"material":0,"indices":10}]}],"nodes":[{"translation":[-14.108533992956183,-20.750000000000004,-8.35],"mesh":0},{"translation":[-14.108533992956183,-20.750000000000004,-8.35],"mesh":1},{"translation":[-14.108533992956183,-20.750000000000004,-8.35],"mesh":2},{"translation":[-14.108533992956183,-20.750000000000004,-8.35],"mesh":3},{"translation":[-14.108533992956183,-20.750000000000004,-8.35],"mesh":4},{"translation":[-14.108533992956183,-20.750000000000004,-8.35],"mesh":5},{"translation":[-14.108533992956183,-20.750000000000004,-8.35],"mesh":6},{"translation":[-14.108533992956183,-20.750000000000004,-8.35],"mesh":7}],"scenes":[{"nodes":[0,1,2,3,4,5,6,7]}]}