<svg xmlns="http://www.w3.org/2000/svg" version="1.1" xmlns:xlink="http://www.w3.org/1999/xlink" xmlns:svgjs="http://svgjs.dev/svgjs" width="2000" height="984" viewBox="0 0 2000 984"><g transform="matrix(1,0,0,1,-1.2121212121212466,0.5102139440580231)"><svg viewBox="0 0 396 195" data-background-color="#fff3e1" preserveAspectRatio="xMidYMid meet" height="984" width="2000" xmlns="http://www.w3.org/2000/svg" xmlns:xlink="http://www.w3.org/1999/xlink"><g id="tight-bounds" transform="matrix(1,0,0,1,0.2400000000000091,-0.1011094706212532)"><svg viewBox="0 0 395.52 195.2022189412425" height="195.2022189412425" width="395.52"><g><svg viewBox="0 0 574.5368320994437 283.5529543114975" height="195.2022189412425" width="395.52"><g transform="matrix(1,0,0,1,179.01683209944377,0)"><svg viewBox="0 0 395.52 283.5529543114975" height="283.5529543114975" width="395.52"><g id="textblocktransform"><svg viewBox="0 0 395.52 283.5529543114975" height="283.5529543114975" width="395.52" id="textblock"><g><svg viewBox="0 0 395.52 199.5451955867603" height="199.5451955867603" width="395.52"><g transform="matrix(1,0,0,1,0,0)"><svg width="395.52" viewBox="1.7500000000000009 -35.84999999999999 200.25 98.6" height="199.5451955867603" data-palette-color="#2a2325"><svg></svg><svg></svg><g class="wordmark-text-0" data-fill-palette-color="primary" id="text-0"><path d="M18.35 0.45v0c-3.333 0-6.24-0.76-8.72-2.28-2.487-1.513-4.42-3.587-5.8-6.22-1.387-2.633-2.08-5.617-2.08-8.95v0c0-2.6 0.427-4.95 1.28-7.05 0.847-2.1 2.02-3.91 3.52-5.43 1.5-1.513 3.26-2.687 5.28-3.52 2.013-0.833 4.187-1.25 6.52-1.25v0c3.267 0 6.15 0.717 8.65 2.15 2.5 1.433 4.467 3.433 5.9 6 1.433 2.567 2.15 5.567 2.15 9v0c0 2.5-0.4 4.817-1.2 6.95-0.8 2.133-1.95 3.99-3.45 5.57-1.5 1.587-3.267 2.82-5.3 3.7-2.033 0.887-4.283 1.33-6.75 1.33zM19.3-2.25v0c2.067 0 3.827-0.593 5.28-1.78 1.447-1.18 2.563-2.803 3.35-4.87 0.78-2.067 1.17-4.383 1.17-6.95v0c0-2.933-0.507-5.6-1.52-8-1.02-2.4-2.403-4.3-4.15-5.7-1.753-1.4-3.763-2.1-6.03-2.1v0c-1.867 0-3.533 0.55-5 1.65-1.467 1.1-2.617 2.65-3.45 4.65-0.833 2-1.25 4.333-1.25 7v0c0 2.1 0.25 4.117 0.75 6.05 0.5 1.933 1.243 3.657 2.23 5.17 0.98 1.52 2.187 2.713 3.62 3.58 1.433 0.867 3.1 1.3 5 1.3zM47.6-21l-5.3 10.4v-5.2c0-0.867-0.073-1.56-0.22-2.08-0.153-0.513-0.497-0.903-1.03-1.17-0.533-0.267-1.35-0.417-2.45-0.45v0c0-0.4 0.033-0.783 0.1-1.15 0.067-0.367 0.183-0.7 0.35-1v0c1.267-0.067 2.617-0.267 4.05-0.6 1.433-0.333 2.533-0.7 3.3-1.1v0c0.333 0.133 0.617 0.367 0.85 0.7 0.233 0.333 0.35 0.883 0.35 1.65zM62.7-14.95v8.35c0 1.7 0.227 2.85 0.68 3.45 0.447 0.6 1.17 0.9 2.17 0.9v0c0.1 0.333 0.167 0.683 0.2 1.05 0.033 0.367 0.05 0.817 0.05 1.35v0c-0.733-0.067-1.6-0.107-2.6-0.12-1-0.02-2.017-0.03-3.05-0.03v0c-0.7 0-1.44 0.01-2.22 0.03-0.787 0.013-1.53 0.03-2.23 0.05-0.7 0.013-1.317 0.037-1.85 0.07v0c0-0.5 0.017-0.95 0.05-1.35 0.033-0.4 0.117-0.75 0.25-1.05v0c1.1 0 1.917-0.317 2.45-0.95 0.533-0.633 0.8-1.8 0.8-3.5v0-6.95c0-2.3-0.4-3.867-1.2-4.7-0.8-0.833-1.867-1.25-3.2-1.25v0c-0.833 0-1.667 0.283-2.5 0.85-0.833 0.567-1.523 1.45-2.07 2.65-0.553 1.2-0.83 2.783-0.83 4.75v0 4.75c0 1.667 0.243 2.807 0.73 3.42 0.48 0.62 1.32 0.93 2.52 0.93v0c0.133 0.333 0.217 0.69 0.25 1.07 0.033 0.387 0.05 0.83 0.05 1.33v0c-0.467-0.033-1.05-0.057-1.75-0.07-0.7-0.02-1.433-0.037-2.2-0.05-0.767-0.02-1.517-0.03-2.25-0.03v0c-0.7 0-1.44 0.01-2.22 0.03-0.787 0.013-1.547 0.03-2.28 0.05-0.733 0.013-1.35 0.037-1.85 0.07v0c0-0.5 0.027-0.96 0.08-1.38 0.047-0.413 0.12-0.753 0.22-1.02v0c1.3 0 2.193-0.31 2.68-0.93 0.48-0.613 0.72-1.753 0.72-3.42v0-9.2l5.3-5.2c0 0.4-0.023 0.85-0.07 1.35-0.053 0.5-0.163 1.033-0.33 1.6v0c0.133-0.233 0.267-0.483 0.4-0.75 0.133-0.267 0.317-0.55 0.55-0.85v0c0.6-0.767 1.517-1.533 2.75-2.3 1.233-0.767 2.7-1.15 4.4-1.15v0c1.3 0 2.517 0.257 3.65 0.77 1.133 0.52 2.043 1.37 2.73 2.55 0.68 1.187 1.02 2.797 1.02 4.83zM69.3 0.15v0c0-0.4 0.017-0.817 0.05-1.25 0.033-0.433 0.1-0.817 0.2-1.15v0c1.333-0.033 2.243-0.35 2.73-0.95 0.48-0.6 0.72-1.733 0.72-3.4v0-21.95c0-0.767-0.083-1.4-0.25-1.9-0.167-0.5-0.517-0.883-1.05-1.15-0.533-0.267-1.35-0.4-2.45-0.4v0c0-0.4 0.033-0.783 0.1-1.15 0.067-0.367 0.183-0.7 0.35-1v0c0.7 0 1.55-0.083 2.55-0.25 1-0.167 1.943-0.383 2.83-0.65 0.88-0.267 1.537-0.533 1.97-0.8v0c0.333 0.133 0.617 0.367 0.85 0.7 0.233 0.333 0.35 0.833 0.35 1.5v0 27.05c0 1.667 0.227 2.8 0.68 3.4 0.447 0.6 1.22 0.917 2.32 0.95v0c0.1 0.333 0.177 0.733 0.23 1.2 0.047 0.467 0.07 0.867 0.07 1.2v0c-0.567-0.033-1.183-0.057-1.85-0.07-0.667-0.02-1.367-0.037-2.1-0.05-0.733-0.02-1.45-0.03-2.15-0.03v0c-0.7 0-1.433 0.01-2.2 0.03-0.767 0.013-1.483 0.03-2.15 0.05-0.667 0.013-1.267 0.037-1.8 0.07zM84.95 0.15v0c0-0.4 0.027-0.817 0.08-1.25 0.047-0.433 0.12-0.817 0.22-1.15v0c1.333-0.033 2.233-0.35 2.7-0.95 0.467-0.6 0.7-1.733 0.7-3.4v0-9.35c0-0.8-0.073-1.46-0.22-1.98-0.153-0.513-0.497-0.903-1.03-1.17-0.533-0.267-1.367-0.4-2.5-0.4v0c0-0.4 0.043-0.783 0.13-1.15 0.08-0.367 0.203-0.7 0.37-1v0c0.667 0 1.5-0.083 2.5-0.25 1-0.167 1.95-0.383 2.85-0.65 0.9-0.267 1.567-0.533 2-0.8v0c0.333 0.133 0.617 0.367 0.85 0.7 0.233 0.333 0.35 0.833 0.35 1.5v0 14.55c0 1.667 0.227 2.8 0.68 3.4 0.447 0.6 1.22 0.917 2.32 0.95v0c0.1 0.333 0.167 0.733 0.2 1.2 0.033 0.467 0.05 0.867 0.05 1.2v0c-0.533-0.033-1.133-0.057-1.8-0.07-0.667-0.02-1.367-0.037-2.1-0.05-0.733-0.02-1.45-0.03-2.15-0.03v0c-0.733 0-1.473 0.01-2.22 0.03-0.753 0.013-1.47 0.03-2.15 0.05-0.687 0.013-1.297 0.037-1.83 0.07zM90.85-28.5v0c-0.967 0-1.757-0.293-2.37-0.88-0.62-0.58-0.93-1.303-0.93-2.17v0c0-1 0.333-1.8 1-2.4 0.667-0.6 1.45-0.9 2.35-0.9v0c1.033 0 1.85 0.3 2.45 0.9 0.6 0.6 0.9 1.383 0.9 2.35v0c0 0.833-0.323 1.557-0.97 2.17-0.653 0.62-1.463 0.93-2.43 0.93zM109.75-21l-5.3 10.4v-5.2c0-0.867-0.073-1.56-0.22-2.08-0.153-0.513-0.497-0.903-1.03-1.17-0.533-0.267-1.35-0.417-2.45-0.45v0c0-0.4 0.033-0.783 0.1-1.15 0.067-0.367 0.183-0.7 0.35-1v0c1.267-0.067 2.617-0.267 4.05-0.6 1.433-0.333 2.533-0.7 3.3-1.1v0c0.333 0.133 0.617 0.367 0.85 0.7 0.233 0.333 0.35 0.883 0.35 1.65zM124.85-14.95v8.35c0 1.7 0.227 2.85 0.68 3.45 0.447 0.6 1.17 0.9 2.17 0.9v0c0.1 0.333 0.167 0.683 0.2 1.05 0.033 0.367 0.05 0.817 0.05 1.35v0c-0.733-0.067-1.6-0.107-2.6-0.12-1-0.02-2.017-0.03-3.05-0.03v0c-0.7 0-1.44 0.01-2.22 0.03-0.787 0.013-1.53 0.03-2.23 0.05-0.7 0.013-1.317 0.037-1.85 0.07v0c0-0.5 0.017-0.95 0.05-1.35 0.033-0.4 0.117-0.75 0.25-1.05v0c1.1 0 1.917-0.317 2.45-0.95 0.533-0.633 0.8-1.8 0.8-3.5v0-6.95c0-2.3-0.4-3.867-1.2-4.7-0.8-0.833-1.867-1.25-3.2-1.25v0c-0.833 0-1.667 0.283-2.5 0.85-0.833 0.567-1.523 1.45-2.07 2.65-0.553 1.2-0.83 2.783-0.83 4.75v0 4.75c0 1.667 0.243 2.807 0.73 3.42 0.48 0.62 1.32 0.93 2.52 0.93v0c0.133 0.333 0.217 0.69 0.25 1.07 0.033 0.387 0.05 0.83 0.05 1.33v0c-0.467-0.033-1.05-0.057-1.75-0.07-0.7-0.02-1.433-0.037-2.2-0.05-0.767-0.02-1.517-0.03-2.25-0.03v0c-0.7 0-1.44 0.01-2.22 0.03-0.787 0.013-1.547 0.03-2.28 0.05-0.733 0.013-1.35 0.037-1.85 0.07v0c0-0.5 0.027-0.96 0.08-1.38 0.047-0.413 0.12-0.753 0.22-1.02v0c1.3 0 2.193-0.31 2.68-0.93 0.48-0.613 0.72-1.753 0.72-3.42v0-9.2l5.3-5.2c0 0.4-0.023 0.85-0.07 1.35-0.053 0.5-0.163 1.033-0.33 1.6v0c0.133-0.233 0.267-0.483 0.4-0.75 0.133-0.267 0.317-0.55 0.55-0.85v0c0.6-0.767 1.517-1.533 2.75-2.3 1.233-0.767 2.7-1.15 4.4-1.15v0c1.3 0 2.517 0.257 3.65 0.77 1.133 0.52 2.043 1.37 2.73 2.55 0.68 1.187 1.02 2.797 1.02 4.83zM142.7 0.45v0c-2.5 0-4.557-0.533-6.17-1.6-1.62-1.067-2.837-2.5-3.65-4.3-0.82-1.8-1.23-3.783-1.23-5.95v0c0-2.2 0.433-4.2 1.3-6 0.867-1.8 2.11-3.243 3.73-4.33 1.613-1.08 3.52-1.62 5.72-1.62v0c2.233 0 4.033 0.467 5.4 1.4 1.367 0.933 2.393 2.183 3.08 3.75 0.68 1.567 1.07 3.333 1.17 5.3v0c-0.133 0.767-0.417 1.4-0.85 1.9v0c-0.667 0-1.577 0-2.73 0-1.147 0-2.427 0.007-3.84 0.02-1.42 0.02-2.87 0.053-4.35 0.1-1.487 0.053-2.88 0.113-4.18 0.18v0-2.75h10.3c0-2.2-0.373-3.967-1.12-5.3-0.753-1.333-1.83-2-3.23-2v0c-0.8 0-1.567 0.25-2.3 0.75-0.733 0.5-1.333 1.34-1.8 2.52-0.467 1.187-0.7 2.83-0.7 4.93v0c0 1.667 0.217 3.257 0.65 4.77 0.433 1.52 1.167 2.753 2.2 3.7 1.033 0.953 2.5 1.43 4.4 1.43v0c1.1 0 2.193-0.233 3.28-0.7 1.08-0.467 2.037-1.133 2.87-2v0c0.267 0.133 0.527 0.383 0.78 0.75 0.247 0.367 0.387 0.717 0.42 1.05v0c-1.167 1.433-2.51 2.457-4.03 3.07-1.513 0.62-3.22 0.93-5.12 0.93z" fill="#2a2325" fill-rule="nonzero" stroke="none" stroke-width="1" stroke-linecap="butt" stroke-linejoin="miter" stroke-miterlimit="10" stroke-dasharray="" stroke-dashoffset="0" font-family="none" font-weight="none" font-size="none" text-anchor="none" style="mix-blend-mode: normal" data-fill-palette-color="primary" opacity="1"></path><path transform="translate(0,50.3)" d="M16.25-2.5h0.4c1.767 0 3.16-0.2 4.18-0.6 1.013-0.4 1.847-1.077 2.5-2.03 0.647-0.947 1.22-2.187 1.72-3.72v0c0.6 0.133 1.117 0.3 1.55 0.5 0.433 0.2 0.8 0.45 1.1 0.75v0c-0.367 1.133-0.673 2.39-0.92 3.77-0.253 1.387-0.463 2.697-0.63 3.93v0c-0.667-0.033-1.567-0.05-2.7-0.05-1.133 0-2.35-0.007-3.65-0.02-1.3-0.02-2.583-0.03-3.85-0.03v0c-0.933 0-2.023 0-3.27 0-1.253 0-2.537 0.01-3.85 0.03-1.32 0.013-2.53 0.03-3.63 0.05-1.1 0.013-1.967 0.037-2.6 0.07v0c0-0.5 0.017-0.96 0.05-1.38 0.033-0.413 0.1-0.753 0.2-1.02v0c0.9-0.067 1.6-0.243 2.1-0.53 0.5-0.28 0.86-0.77 1.08-1.47 0.213-0.7 0.32-1.717 0.32-3.05v0-19.7c0-1.2-0.1-2.11-0.3-2.73-0.2-0.613-0.55-1.053-1.05-1.32-0.5-0.267-1.2-0.433-2.1-0.5v0c-0.1-0.3-0.167-0.667-0.2-1.1-0.033-0.433-0.05-0.867-0.05-1.3v0c0.733 0.033 1.477 0.057 2.23 0.07 0.747 0.02 1.487 0.037 2.22 0.05 0.733 0.02 1.4 0.03 2 0.03v0c0.733 0 1.467-0.01 2.2-0.03 0.733-0.013 1.46-0.03 2.18-0.05 0.713-0.013 1.403-0.037 2.07-0.07v0c0 0.467-0.017 0.907-0.05 1.32-0.033 0.42-0.1 0.78-0.2 1.08v0c-0.867 0.067-1.557 0.233-2.07 0.5-0.52 0.267-0.88 0.723-1.08 1.37-0.2 0.653-0.3 1.597-0.3 2.83v0 19.55c0 1.267 0.117 2.25 0.35 2.95 0.233 0.7 0.677 1.183 1.33 1.45 0.647 0.267 1.553 0.4 2.72 0.4zM41.6 0.45v0c-2.5 0-4.557-0.533-6.17-1.6-1.62-1.067-2.837-2.5-3.65-4.3-0.82-1.8-1.23-3.783-1.23-5.95v0c0-2.2 0.433-4.2 1.3-6 0.867-1.8 2.11-3.243 3.73-4.33 1.613-1.08 3.52-1.62 5.72-1.62v0c2.233 0 4.033 0.467 5.4 1.4 1.367 0.933 2.393 2.183 3.08 3.75 0.68 1.567 1.07 3.333 1.17 5.3v0c-0.133 0.767-0.417 1.4-0.85 1.9v0c-0.667 0-1.573 0-2.72 0-1.153 0-2.437 0.007-3.85 0.02-1.42 0.02-2.87 0.053-4.35 0.1-1.487 0.053-2.88 0.113-4.18 0.18v0-2.75h10.3c0-2.2-0.373-3.967-1.12-5.3-0.753-1.333-1.83-2-3.23-2v0c-0.8 0-1.567 0.25-2.3 0.75-0.733 0.5-1.333 1.34-1.8 2.52-0.467 1.187-0.7 2.83-0.7 4.93v0c0 1.667 0.217 3.257 0.65 4.77 0.433 1.52 1.167 2.753 2.2 3.7 1.033 0.953 2.5 1.43 4.4 1.43v0c1.1 0 2.193-0.233 3.28-0.7 1.08-0.467 2.037-1.133 2.87-2v0c0.267 0.133 0.527 0.383 0.78 0.75 0.247 0.367 0.387 0.717 0.42 1.05v0c-1.167 1.433-2.507 2.457-4.02 3.07-1.52 0.62-3.23 0.93-5.13 0.93zM70.35 0.45v0c-0.4-0.167-0.717-0.477-0.95-0.93-0.233-0.447-0.35-1.12-0.35-2.02v0c0-0.333 0.027-0.727 0.08-1.18 0.047-0.447 0.12-0.87 0.22-1.27v0h0.15c-0.133 0.633-0.39 1.267-0.77 1.9-0.387 0.633-0.863 1.2-1.43 1.7v0c-0.6 0.5-1.35 0.907-2.25 1.22-0.9 0.32-1.967 0.48-3.2 0.48v0c-2.133 0-3.773-0.473-4.92-1.42-1.153-0.953-1.73-2.28-1.73-3.98v0c0-1.3 0.31-2.41 0.93-3.33 0.613-0.913 1.413-1.68 2.4-2.3 0.98-0.613 2.053-1.103 3.22-1.47 1.167-0.367 2.327-0.66 3.48-0.88 1.147-0.213 2.187-0.387 3.12-0.52v0c0-1.267-0.023-2.267-0.07-3-0.053-0.733-0.153-1.323-0.3-1.77-0.153-0.453-0.38-0.847-0.68-1.18v0c-0.4-0.467-0.85-0.817-1.35-1.05-0.5-0.233-1.05-0.35-1.65-0.35v0c-1.067 0-1.9 0.323-2.5 0.97-0.6 0.653-1.033 1.42-1.3 2.3-0.267 0.887-0.433 1.713-0.5 2.48v0c-0.467 0-1-0.033-1.6-0.1-0.6-0.067-1.083-0.167-1.45-0.3v0c0.067-0.867 0.093-1.817 0.08-2.85-0.02-1.033-0.13-1.95-0.33-2.75v0c1.4-0.7 2.9-1.243 4.5-1.63 1.6-0.38 3.083-0.57 4.45-0.57v0c1.433 0 2.633 0.183 3.6 0.55 0.967 0.367 1.717 0.85 2.25 1.45v0c0.833 0.8 1.4 1.857 1.7 3.17 0.3 1.32 0.45 3.113 0.45 5.38v0 5.15c0 0.967 0.077 1.733 0.23 2.3 0.147 0.567 0.437 0.973 0.87 1.22 0.433 0.253 1.083 0.397 1.95 0.43v0c0.033 0.4 0.027 0.833-0.02 1.3-0.053 0.467-0.163 0.9-0.33 1.3v0c-0.933 0.033-1.95 0.183-3.05 0.45-1.1 0.267-2.083 0.633-2.95 1.1zM63.55-2.8v0c0.733 0 1.467-0.243 2.2-0.73 0.733-0.48 1.35-1.213 1.85-2.2 0.5-0.98 0.75-2.27 0.75-3.87v0-1.75c-0.867 0.133-1.75 0.3-2.65 0.5-0.9 0.2-1.723 0.483-2.47 0.85-0.753 0.367-1.353 0.85-1.8 1.45-0.453 0.6-0.68 1.4-0.68 2.4v0c0 1.167 0.283 2.017 0.85 2.55 0.567 0.533 1.217 0.8 1.95 0.8zM89.3-11.35v3.6c0 1.433 0.15 2.533 0.45 3.3 0.3 0.767 0.79 1.3 1.47 1.6 0.687 0.3 1.58 0.5 2.68 0.6v0c0.1 0.3 0.177 0.65 0.23 1.05 0.047 0.4 0.07 0.85 0.07 1.35v0c-0.533-0.033-1.167-0.057-1.9-0.07-0.733-0.02-1.517-0.037-2.35-0.05-0.833-0.02-1.667-0.03-2.5-0.03v0c-1.267 0-2.583 0.01-3.95 0.03-1.367 0.013-2.433 0.053-3.2 0.12v0c0-0.533 0.017-1 0.05-1.4 0.033-0.4 0.117-0.733 0.25-1v0c0.9-0.067 1.59-0.233 2.07-0.5 0.487-0.267 0.83-0.717 1.03-1.35 0.2-0.633 0.3-1.533 0.3-2.7v0-4.55zM88.4-15.3l0.9 0.65v4.05h-5.3v-5.55l5.3-4.85c0 1.033-0.1 2-0.3 2.9-0.2 0.9-0.4 1.833-0.6 2.8zM89.3-11.9l-1.1-3.1c0.333-0.9 0.61-1.673 0.83-2.32 0.213-0.653 0.437-1.18 0.67-1.58v0c0.733-1.167 1.61-2.133 2.63-2.9 1.013-0.767 2.187-1.15 3.52-1.15v0c1.267 0 2.417 0.4 3.45 1.2v0c-0.067 0.567-0.133 1.223-0.2 1.97-0.067 0.753-0.11 1.503-0.13 2.25-0.013 0.753-0.02 1.447-0.02 2.08v0c-0.367 0.133-0.85 0.25-1.45 0.35-0.6 0.1-1.2 0.15-1.8 0.15v0c-0.067-1.5-0.31-2.51-0.73-3.03-0.413-0.513-0.953-0.77-1.62-0.77v0c-0.533 0-1.123 0.317-1.77 0.95-0.653 0.633-1.197 1.467-1.63 2.5-0.433 1.033-0.65 2.167-0.65 3.4zM89.3-21l-5.3 10.4v-5.2c0-0.867-0.073-1.56-0.22-2.08-0.153-0.513-0.497-0.903-1.03-1.17-0.533-0.267-1.35-0.417-2.45-0.45v0c0-0.4 0.033-0.783 0.1-1.15 0.067-0.367 0.183-0.7 0.35-1v0c1.267-0.067 2.617-0.267 4.05-0.6 1.433-0.333 2.533-0.7 3.3-1.1v0c0.333 0.133 0.617 0.367 0.85 0.7 0.233 0.333 0.35 0.883 0.35 1.65zM111.1-21l-5.3 10.4v-5.2c0-0.867-0.073-1.56-0.22-2.08-0.153-0.513-0.497-0.903-1.03-1.17-0.533-0.267-1.35-0.417-2.45-0.45v0c0-0.4 0.033-0.783 0.1-1.15 0.067-0.367 0.183-0.7 0.35-1v0c1.267-0.067 2.617-0.267 4.05-0.6 1.433-0.333 2.533-0.7 3.3-1.1v0c0.333 0.133 0.617 0.367 0.85 0.7 0.233 0.333 0.35 0.883 0.35 1.65zM126.2-14.95v8.35c0 1.7 0.227 2.85 0.68 3.45 0.447 0.6 1.17 0.9 2.17 0.9v0c0.1 0.333 0.167 0.683 0.2 1.05 0.033 0.367 0.05 0.817 0.05 1.35v0c-0.733-0.067-1.6-0.107-2.6-0.12-1-0.02-2.017-0.03-3.05-0.03v0c-0.7 0-1.443 0.01-2.23 0.03-0.78 0.013-1.52 0.03-2.22 0.05-0.7 0.013-1.317 0.037-1.85 0.07v0c0-0.5 0.017-0.95 0.05-1.35 0.033-0.4 0.117-0.75 0.25-1.05v0c1.1 0 1.917-0.317 2.45-0.95 0.533-0.633 0.8-1.8 0.8-3.5v0-6.95c0-2.3-0.4-3.867-1.2-4.7-0.8-0.833-1.867-1.25-3.2-1.25v0c-0.833 0-1.667 0.283-2.5 0.85-0.833 0.567-1.527 1.45-2.08 2.65-0.547 1.2-0.82 2.783-0.82 4.75v0 4.75c0 1.667 0.243 2.807 0.73 3.42 0.48 0.62 1.32 0.93 2.52 0.93v0c0.133 0.333 0.217 0.69 0.25 1.07 0.033 0.387 0.05 0.83 0.05 1.33v0c-0.467-0.033-1.05-0.057-1.75-0.07-0.7-0.02-1.433-0.037-2.2-0.05-0.767-0.02-1.517-0.03-2.25-0.03v0c-0.7 0-1.443 0.01-2.23 0.03-0.78 0.013-1.537 0.03-2.27 0.05-0.733 0.013-1.35 0.037-1.85 0.07v0c0-0.5 0.023-0.96 0.07-1.38 0.053-0.413 0.13-0.753 0.23-1.02v0c1.3 0 2.193-0.31 2.68-0.93 0.48-0.613 0.72-1.753 0.72-3.42v0-9.2l5.3-5.2c0 0.4-0.023 0.85-0.07 1.35-0.053 0.5-0.163 1.033-0.33 1.6v0c0.133-0.233 0.267-0.483 0.4-0.75 0.133-0.267 0.317-0.55 0.55-0.85v0c0.6-0.767 1.517-1.533 2.75-2.3 1.233-0.767 2.7-1.15 4.4-1.15v0c1.3 0 2.517 0.257 3.65 0.77 1.133 0.52 2.04 1.37 2.72 2.55 0.687 1.187 1.03 2.797 1.03 4.83zM132.9 0.15v0c0-0.4 0.023-0.817 0.07-1.25 0.053-0.433 0.13-0.817 0.23-1.15v0c1.333-0.033 2.233-0.35 2.7-0.95 0.467-0.6 0.7-1.733 0.7-3.4v0-9.35c0-0.8-0.073-1.46-0.22-1.98-0.153-0.513-0.497-0.903-1.03-1.17-0.533-0.267-1.367-0.4-2.5-0.4v0c0-0.4 0.04-0.783 0.12-1.15 0.087-0.367 0.213-0.7 0.38-1v0c0.667 0 1.5-0.083 2.5-0.25 1-0.167 1.95-0.383 2.85-0.65 0.9-0.267 1.567-0.533 2-0.8v0c0.333 0.133 0.617 0.367 0.85 0.7 0.233 0.333 0.35 0.833 0.35 1.5v0 14.55c0 1.667 0.223 2.8 0.67 3.4 0.453 0.6 1.23 0.917 2.33 0.95v0c0.1 0.333 0.167 0.733 0.2 1.2 0.033 0.467 0.05 0.867 0.05 1.2v0c-0.533-0.033-1.133-0.057-1.8-0.07-0.667-0.02-1.367-0.037-2.1-0.05-0.733-0.02-1.45-0.03-2.15-0.03v0c-0.733 0-1.473 0.01-2.22 0.03-0.753 0.013-1.473 0.03-2.16 0.05-0.68 0.013-1.287 0.037-1.82 0.07zM138.8-28.5v0c-0.967 0-1.76-0.293-2.38-0.88-0.613-0.58-0.92-1.303-0.92-2.17v0c0-1 0.333-1.8 1-2.4 0.667-0.6 1.45-0.9 2.35-0.9v0c1.033 0 1.85 0.3 2.45 0.9 0.6 0.6 0.9 1.383 0.9 2.35v0c0 0.833-0.327 1.557-0.98 2.17-0.647 0.62-1.453 0.93-2.42 0.93zM157.7-21l-5.3 10.4v-5.2c0-0.867-0.073-1.56-0.22-2.08-0.153-0.513-0.497-0.903-1.03-1.17-0.533-0.267-1.35-0.417-2.45-0.45v0c0-0.4 0.033-0.783 0.1-1.15 0.067-0.367 0.183-0.7 0.35-1v0c1.267-0.067 2.617-0.267 4.05-0.6 1.433-0.333 2.533-0.7 3.3-1.1v0c0.333 0.133 0.617 0.367 0.85 0.7 0.233 0.333 0.35 0.883 0.35 1.65zM172.8-14.95v8.35c0 1.7 0.227 2.85 0.68 3.45 0.447 0.6 1.17 0.9 2.17 0.9v0c0.1 0.333 0.167 0.683 0.2 1.05 0.033 0.367 0.05 0.817 0.05 1.35v0c-0.733-0.067-1.6-0.107-2.6-0.12-1-0.02-2.017-0.03-3.05-0.03v0c-0.7 0-1.44 0.01-2.22 0.03-0.787 0.013-1.53 0.03-2.23 0.05-0.7 0.013-1.317 0.037-1.85 0.07v0c0-0.5 0.017-0.95 0.05-1.35 0.033-0.4 0.117-0.75 0.25-1.05v0c1.1 0 1.917-0.317 2.45-0.95 0.533-0.633 0.8-1.8 0.8-3.5v0-6.95c0-2.3-0.4-3.867-1.2-4.7-0.8-0.833-1.867-1.25-3.2-1.25v0c-0.833 0-1.667 0.283-2.5 0.85-0.833 0.567-1.523 1.45-2.07 2.65-0.553 1.2-0.83 2.783-0.83 4.75v0 4.75c0 1.667 0.243 2.807 0.73 3.42 0.48 0.62 1.32 0.93 2.52 0.93v0c0.133 0.333 0.217 0.69 0.25 1.07 0.033 0.387 0.05 0.83 0.05 1.33v0c-0.467-0.033-1.05-0.057-1.75-0.07-0.7-0.02-1.433-0.037-2.2-0.05-0.767-0.02-1.517-0.03-2.25-0.03v0c-0.7 0-1.44 0.01-2.22 0.03-0.787 0.013-1.547 0.03-2.28 0.05-0.733 0.013-1.35 0.037-1.85 0.07v0c0-0.5 0.027-0.96 0.08-1.38 0.047-0.413 0.12-0.753 0.22-1.02v0c1.3 0 2.193-0.31 2.68-0.93 0.48-0.613 0.72-1.753 0.72-3.42v0-9.2l5.3-5.2c0 0.4-0.023 0.85-0.07 1.35-0.053 0.5-0.163 1.033-0.33 1.6v0c0.133-0.233 0.267-0.483 0.4-0.75 0.133-0.267 0.317-0.55 0.55-0.85v0c0.6-0.767 1.517-1.533 2.75-2.3 1.233-0.767 2.7-1.15 4.4-1.15v0c1.3 0 2.517 0.257 3.65 0.77 1.133 0.52 2.043 1.37 2.73 2.55 0.68 1.187 1.02 2.797 1.02 4.83zM188.55 12.45v0c-2.133 0-3.857-0.257-5.17-0.77-1.32-0.52-2.28-1.27-2.88-2.25-0.6-0.987-0.9-2.18-0.9-3.58v0c0-1.267 0.35-2.367 1.05-3.3 0.7-0.933 1.683-1.65 2.95-2.15v0l2.75 0.3c-0.767 0.633-1.29 1.26-1.57 1.88-0.287 0.613-0.43 1.337-0.43 2.17v0c0 1.6 0.417 2.81 1.25 3.63 0.833 0.813 2.25 1.22 4.25 1.22v0c2.167 0 3.867-0.507 5.1-1.52 1.233-1.02 1.85-2.213 1.85-3.58v0c0-0.767-0.19-1.373-0.57-1.82-0.387-0.453-1.13-0.787-2.23-1-1.1-0.22-2.717-0.33-4.85-0.33v0c-1.467 0-2.717-0.073-3.75-0.22-1.033-0.153-1.883-0.403-2.55-0.75-0.667-0.353-1.15-0.823-1.45-1.41-0.3-0.58-0.45-1.32-0.45-2.22v0c0-1.2 0.333-2.317 1-3.35 0.667-1.033 1.5-1.95 2.5-2.75v0l2.3 1.3c-0.6 0.5-1.04 0.973-1.32 1.42-0.287 0.453-0.43 0.863-0.43 1.23v0c0 0.6 0.193 1.04 0.58 1.32 0.38 0.287 1.113 0.47 2.2 0.55 1.08 0.087 2.62 0.13 4.62 0.13v0c2.167 0 3.917 0.183 5.25 0.55 1.333 0.367 2.317 0.96 2.95 1.78 0.633 0.813 0.95 1.937 0.95 3.37v0c0 1.2-0.317 2.41-0.95 3.63-0.633 1.213-1.523 2.303-2.67 3.27-1.153 0.967-2.53 1.75-4.13 2.35-1.6 0.6-3.35 0.9-5.25 0.9zM189.9-6.95v0c-1.733 0-3.333-0.3-4.8-0.9-1.467-0.6-2.623-1.5-3.47-2.7-0.853-1.2-1.28-2.7-1.28-4.5v0c0-1.6 0.35-3.017 1.05-4.25 0.7-1.233 1.75-2.217 3.15-2.95 1.4-0.733 3.117-1.1 5.15-1.1v0c1.767 0 3.26 0.273 4.48 0.82 1.213 0.553 2.22 1.253 3.02 2.1 0.8 0.853 1.377 1.747 1.73 2.68 0.347 0.933 0.52 1.783 0.52 2.55v0c0 1.5-0.357 2.883-1.07 4.15-0.72 1.267-1.787 2.267-3.2 3-1.42 0.733-3.18 1.1-5.28 1.1zM190.5-9.45v0c1.067 0 1.933-0.443 2.6-1.33 0.667-0.88 1-2.17 1-3.87v0c0-1.767-0.407-3.267-1.22-4.5-0.82-1.233-1.98-1.85-3.48-1.85v0c-1.267 0-2.2 0.533-2.8 1.6-0.6 1.067-0.9 2.3-0.9 3.7v0c0 2 0.427 3.54 1.28 4.62 0.847 1.087 2.02 1.63 3.52 1.63zM202-19.6v0c-0.533-0.133-1.157-0.267-1.87-0.4-0.72-0.133-1.42-0.25-2.1-0.35-0.687-0.1-1.297-0.167-1.83-0.2v0l-3.9-2.35h9.3c0.167 0.467 0.277 0.99 0.33 1.57 0.047 0.587 0.07 1.163 0.07 1.73z" fill="#2a2325" fill-rule="nonzero" stroke="none" stroke-width="1" stroke-linecap="butt" stroke-linejoin="miter" stroke-miterlimit="10" stroke-dasharray="" stroke-dashoffset="0" font-family="none" font-weight="none" font-size="none" text-anchor="none" style="mix-blend-mode: normal" data-fill-palette-color="primary" opacity="1"></path></g></svg></g></svg></g><g transform="matrix(1,0,0,1,0,221.6943052722969)"><svg viewBox="0 0 266.77824 61.858649039200614" height="61.858649039200614" width="266.77824"><g transform="matrix(1,0,0,1,0,0)"><svg width="266.77824" viewBox="3.75 -36.15 195.13 45.25" height="61.858649039200614" data-palette-color="#c64e33"><path d="M3.75 0L3.75-34.3 9.3-34.3 9.3-4.8 27.15-4.8 27.15 0 3.75 0ZM43.1 0.6Q36.75 0.6 33.65-2.75 30.55-6.1 30.55-13.15L30.55-13.15Q30.55-20.2 33.65-23.55 36.75-26.9 43.1-26.9L43.1-26.9Q48.85-26.9 51.7-23.78 54.55-20.65 54.55-13.85L54.55-13.85 54.55-11.85 35.85-11.85Q36.05-7.6 37.77-5.58 39.5-3.55 43.15-3.55L43.15-3.55Q46-3.55 47.75-4.9 49.5-6.25 49.5-9.05L49.5-9.05 54.55-9.05Q54.55-4.35 51.37-1.88 48.2 0.6 43.1 0.6L43.1 0.6ZM35.95-15.75L49.2-15.75Q49.2-22.75 43.1-22.75L43.1-22.75Q39.7-22.75 38-21.08 36.3-19.4 35.95-15.75L35.95-15.75ZM66.65 0.6Q63.4 0.6 60.77-1 58.15-2.6 58.15-6.8L58.15-6.8Q58.15-11.85 62.55-13.8 66.95-15.75 75.15-15.75L75.15-15.75 75.15-18.35Q75.15-20.5 74.02-21.63 72.9-22.75 69.85-22.75L69.85-22.75Q66.9-22.75 65.67-21.7 64.45-20.65 64.45-19.15L64.45-19.15 64.45-18.5 59.45-18.5Q59.4-18.8 59.4-19.6L59.4-19.6Q59.4-23.05 62.3-24.98 65.2-26.9 70.05-26.9L70.05-26.9Q75.15-26.9 77.72-24.8 80.3-22.7 80.3-18.85L80.3-18.85 80.3-5.4Q80.3-4.5 80.8-4.08 81.3-3.65 82.05-3.65L82.05-3.65 83.85-3.65 83.85-0.2Q82.55 0.45 80.3 0.45L80.3 0.45Q78.5 0.45 77.27-0.53 76.05-1.5 75.65-3.2L75.65-3.2 75.3-3.2Q73.9-1.4 71.72-0.4 69.55 0.6 66.65 0.6L66.65 0.6ZM68.15-3.6Q71.1-3.6 73.12-5.38 75.15-7.15 75.15-10.25L75.15-10.25 75.15-11.85Q69.45-11.85 66.45-10.88 63.45-9.9 63.45-7.2L63.45-7.2Q63.45-5.35 64.62-4.48 65.8-3.6 68.15-3.6L68.15-3.6ZM87.64 0L87.64-26.3 91.79-26.3 92.29-22.25 92.59-22.25Q94.39-26.9 98.64-26.9L98.64-26.9Q100.04-26.9 101.09-26.5L101.09-26.5 101.09-21.6 99.24-21.6Q96.29-21.6 94.54-19.9 92.79-18.2 92.79-14.7L92.79-14.7 92.79 0 87.64 0ZM105.14 0L105.14-26.3 109.29-26.3 109.79-22.8 110.14-22.8Q111.54-24.8 113.77-25.85 115.99-26.9 118.79-26.9L118.79-26.9Q127.14-26.9 127.14-17.85L127.14-17.85 127.14 0 121.99 0 121.99-17.2Q121.99-20.15 120.67-21.33 119.34-22.5 116.79-22.5L116.79-22.5Q115.04-22.5 113.54-21.63 112.04-20.75 111.17-19.15 110.29-17.55 110.29-15.45L110.29-15.45 110.29 0 105.14 0ZM133.79-30.9L133.79-36.15 138.89-36.15 138.89-30.9 133.79-30.9ZM133.79 0L133.79-26.3 138.94-26.3 138.94 0 133.79 0ZM145.74 0L145.74-26.3 149.89-26.3 150.39-22.8 150.74-22.8Q152.14-24.8 154.36-25.85 156.59-26.9 159.39-26.9L159.39-26.9Q167.74-26.9 167.74-17.85L167.74-17.85 167.74 0 162.59 0 162.59-17.2Q162.59-20.15 161.26-21.33 159.94-22.5 157.39-22.5L157.39-22.5Q155.64-22.5 154.14-21.63 152.64-20.75 151.76-19.15 150.89-17.55 150.89-15.45L150.89-15.45 150.89 0 145.74 0ZM178.93 9.1Q176.13 9.1 174.06 7.55 171.98 6 171.98 2.85L171.98 2.85Q171.98-1.05 176.18-2.7L176.18-2.7Q174.98-3.35 174.23-4.38 173.48-5.4 173.48-6.7L173.48-6.7Q173.48-8.55 174.83-9.63 176.18-10.7 177.93-11.15L177.93-11.15Q176.23-12.35 175.28-14.1 174.33-15.85 174.33-18L174.33-18Q174.33-22.2 177.23-24.55 180.13-26.9 185.28-26.9L185.28-26.9Q188.03-26.9 190.33-26.05L190.33-26.05Q193.48-27.7 193.88-30.6L193.88-30.6 198.83-30.6Q198.83-28.1 197.43-26.4 196.03-24.7 193.58-24.15L193.58-24.15Q196.28-21.75 196.28-18L196.28-18Q196.28-13.85 193.38-11.5 190.48-9.15 185.38-9.15L185.38-9.15 181.23-9.15Q180.03-9.15 179.38-8.6 178.73-8.05 178.73-7.2L178.73-7.2Q178.73-6.35 179.36-5.8 179.98-5.25 181.13-5.25L181.13-5.25 192.13-5.25Q195.18-5.25 197.03-3.35 198.88-1.45 198.88 1.35L198.88 1.35Q198.88 3.4 197.88 5.18 196.88 6.95 194.88 8.03 192.88 9.1 190.08 9.1L190.08 9.1 178.93 9.1ZM185.28-12.9Q188.18-12.9 189.68-14.23 191.18-15.55 191.18-18L191.18-18Q191.18-20.45 189.71-21.78 188.23-23.1 185.28-23.1L185.28-23.1Q182.38-23.1 180.91-21.78 179.43-20.45 179.43-18L179.43-18Q179.43-15.55 180.91-14.23 182.38-12.9 185.28-12.9L185.28-12.9ZM180.13 5.2L190.13 5.2Q191.68 5.2 192.71 4.35 193.73 3.5 193.73 2.15L193.73 2.15Q193.73 0.8 192.88 0 192.03-0.8 190.68-0.8L190.68-0.8 180.13-0.8Q178.78-0.8 177.96 0 177.13 0.8 177.13 2.15L177.13 2.15Q177.13 3.55 177.96 4.38 178.78 5.2 180.13 5.2L180.13 5.2Z" opacity="1" transform="matrix(1,0,0,1,0,0)" fill="#c64e33" class="slogan-text-1" data-fill-palette-color="secondary" id="text-1"></path></svg></g></svg></g></svg></g></svg></g><g transform="matrix(1,0,0,1,0,12.459316812447184)"><svg viewBox="0 0 156.86772241390716 258.63432068660313" height="258.63432068660313" width="156.86772241390716"><g><svg xmlns="http://www.w3.org/2000/svg" xmlns:xlink="http://www.w3.org/1999/xlink" version="1.1" x="0" y="0" viewBox="33.941554115680816 23.625 32.086445884319176 52.902254248593735" enable-background="new 0 0 100 100" xml:space="preserve" height="258.63432068660313" width="156.86772241390716" class="icon-icon-0" data-fill-palette-color="accent" id="icon-0"><path fill-rule="evenodd" clip-rule="evenodd" d="M52.9 35.3C53.2 35.4 53.3 35.4 53.5 35.2 53.6 35.1 53.7 35.1 53.8 35S54 34.9 54.1 34.8 54.3 34.7 54.4 34.6 54.6 34.5 54.7 34.4 55.2 34 55.4 33.9C55.5 33.8 55.7 33.6 55.8 33.6S56 33.4 56.1 33.4 56.3 33.2 56.4 33.2 56.6 33 56.7 33L56.9 32.9 57 32.7H57.2L57.3 32.5H57.5L57.6 32.3C57.8 32.2 57.9 32.2 58.1 32.1 58.2 32.1 58.1 32 58.2 32L58.4 31.9 58.5 31.7H58.7L58.8 31.5H59L59.1 31.3H59.3L59.4 31.1H59.6L59.7 30.9C59.9 30.8 60.1 30.8 60.4 30.6L60.5 30.5C60.6 30.4 60.8 30.5 60.9 30.4L61 30.2H61.2C61.3 30.1 61.3 29.9 61.4 29.9 61.9 29.6 62.4 29.3 62.8 29.2 63.8 29.1 64.4 29.7 65.2 30.3 65.3 30.5 65.1 30.7 65.2 30.9S65.3 31.6 65.2 32V32.2C65.1 32.3 65 32.5 64.9 32.7 64.9 32.8 64.9 32.9 64.8 33 64.8 33.1 64.6 33.1 64.6 33.1 64.4 33.4 64.2 33.6 64 33.9S63.7 34.5 63.5 34.7C63.2 35 62.7 35.1 62.3 35.4 62.2 35.5 62.1 35.7 61.9 35.8 61.8 35.9 61.4 36.1 61.2 36.2 61.1 36.2 61.2 36.3 61.1 36.3S60.9 36.5 60.8 36.5 60.5 36.7 60.3 36.8C60.2 36.9 60.2 37 60.1 37H59.9L59.8 37.2C59.7 37.3 59.6 37.2 59.5 37.3S59.4 37.5 59.3 37.6 59.1 37.6 59 37.7C58.8 37.8 58.7 38.1 58.5 38.2 58.4 38.3 58.4 38.3 58.3 38.3S58.1 38.5 58 38.6H57.8L57.7 38.8H57.5L57.4 39H57.2L57.1 39.2C57 39.3 56.9 39.2 56.8 39.3 56.6 39.4 56.5 39.7 56.3 39.8L55.4 40.7C55.3 40.9 55 40.9 55 41.2 55.1 41.6 55.2 41.7 55.5 41.9 55.6 41.9 55.7 42 55.7 42L56.1 42.4C56.2 42.5 56.3 42.4 56.4 42.5 56.5 42.5 56.5 42.7 56.5 42.7 56.6 42.8 56.7 42.7 56.8 42.8 56.9 42.8 56.9 43 57 43 57.1 43.1 57.3 43.2 57.4 43.3S57.6 43.3 57.7 43.4 57.9 43.8 58.1 44C58.5 44.1 58.9 44.2 59.2 44.5L59.6 44.9C59.7 45 59.7 45.1 59.8 45.1H60C60.1 45.2 60.3 45.3 60.5 45.5 60.6 45.6 60.6 45.7 60.7 45.7H60.9C61 45.8 61.2 46 61.4 46.1 61.5 46.2 61.5 46.3 61.6 46.3H61.8C61.9 46.4 62.1 46.6 62.3 46.7 62.4 46.7 62.5 46.7 62.6 46.8S62.9 47.2 63.1 47.4C63.2 47.4 63.3 47.6 63.3 47.6H63.5V47.7C63.6 47.8 63.7 47.7 63.8 47.8 63.9 47.8 63.9 48 64 48 64.1 48.1 64.2 48 64.3 48.1 64.5 48.2 64.6 48.5 64.8 48.7 64.9 48.8 65.1 48.9 65.2 49S65.2 49.3 65.3 49.4L65.5 49.5V49.7L65.7 49.8C65.8 50 65.7 50.1 65.9 50.2 66 50.6 65.8 50.9 65.8 51.2 65.9 51.2 65.9 51.3 65.9 51.4S66.1 51.7 66 52C65.9 52.4 65.2 53 64.8 53.2 64.7 53.5 64.5 53.7 64.3 53.9 64.1 54 63.8 54 63.6 54.1 63.7 54.1 63 54.4 62.9 54.2 62.8 54.1 62.8 54.1 62.6 54.1H62.4C62.3 54 61.5 54 61.2 53.9 61.2 53.9 61.2 53.8 61.1 53.8S60.9 53.6 60.7 53.6L60.4 53.5 60.1 53.2C60 53.2 60 53.1 59.9 53.1L59.6 53C60 53.3 60 53.1 59.8 53L59.6 52.9 59.3 52.6H59.1L59 52.4H58.8C58.7 52.3 58.7 52.1 58.5 52.1L58.3 52 58 51.7C57.9 51.7 57.9 51.6 57.8 51.6 57.7 51.5 57.5 51.3 57.4 51.3S57.3 51.1 57.2 51.1H57L56.7 50.8C56.6 50.8 56.6 50.7 56.5 50.7L56.4 50.6C56 50.4 55.6 50.5 55.3 50.3 55.2 50.3 55.3 50.2 55.2 50.2 55 50.2 55 49.9 54.8 49.8H54.6C54.5 49.7 54.5 49.6 54.3 49.5 54.2 49.4 54.1 49.4 54 49.3S53.8 49.2 53.7 49.1 53.2 48.7 52.9 48.7C52.7 48.8 52.7 48.9 52.6 49.1S52.5 49.5 52.5 49.7C52.4 50.3 52.5 50.9 52.4 51.7 52.4 52 52.3 52.4 52.3 52.9 52.3 53.2 52.4 53.2 52.3 53.5 52.3 53.6 52.5 54.4 52.3 54.5 52 54.8 52 55.5 52 55.9S52 56.7 51.9 57.1C51.9 57.5 51.7 57.9 51.7 58.2 51.6 59.2 51.7 60.1 51.7 61.1V61.3C51.6 61.9 51.7 63.1 51.7 64 51.7 64.3 51.6 64.5 51.6 64.7 51.6 65 51.7 65.3 51.7 65.6 51.8 66.5 51.8 67.6 51.8 68.6 51.8 69.4 51.8 70.3 51.7 71 51.6 71.3 51.7 71.8 51.6 72.3 51.6 72.6 51.5 72.9 51.4 73.1 51.2 73.8 51.1 74.8 51.1 75.8 51 75.9 50.9 75.9 50.8 76L50.7 76.2C50.6 76.3 50.4 76.2 50.3 76.3 50.1 76.4 49.8 76.6 49.3 76.5 49.1 76.5 48.6 76.1 48.2 76H48L47.7 75.9C47.6 75.7 47.4 75.7 47.2 75.5L46.8 75.1C46.4 74.8 46.2 74.6 46.1 74.3 45.9 73.9 46 73.5 46 73 45.9 71.9 45.9 70.9 45.9 69.6 45.9 69.6 46 69.6 46 69.5 46 69.5 45.9 69.5 45.9 69.4V69.1C45.9 67.8 45.9 66.5 46 65.1 46 64.9 46.1 64.7 46.1 64.5 46.2 62.6 45.9 60.3 46.1 58.3 46.2 57.4 46.2 56.6 46.2 55.7 46.2 53.8 46 51.9 46.2 50.3 46.3 49.4 46.7 48.6 46.2 47.8 45.8 47.6 45.5 48.1 45.2 48.1 45.1 48.1 45 48.3 44.9 48.3S44.8 48.4 44.7 48.4 44.6 48.6 44.5 48.6H44.3V48.7C44.2 48.7 44.1 48.7 44 48.8L43.9 49C43.8 49.1 43.7 49 43.6 49.1L43.5 49.3C43.4 49.4 43.3 49.3 43.2 49.4S43 49.8 42.8 49.9C42.7 50 42.6 49.9 42.5 50L42.4 50.2C42.3 50.3 42.2 50.2 42.1 50.3S41.8 50.7 41.6 50.8C41.5 50.9 41.3 51 41.2 51.1S41.1 51.3 41 51.3H40.8C40.3 51.8 40.3 52 40 52 39.8 52 39.8 52.3 39.6 52.3 39.5 52.3 39.5 52.5 39.4 52.5H39.2V52.6C38.9 52.8 38.6 52.7 38.3 52.8 38.3 52.8 38.3 52.9 38.2 52.9 38 52.9 37.4 53.3 37 53.2 37 53.2 37 53.1 36.9 53.1 36.7 53.1 36.6 53.1 36.4 53 36.3 53 36.1 53 36 52.9L35.6 52.5C35.5 52.4 35.3 52.2 35.2 52 35 52 35 52 35 51.8 35 51.7 34.9 51.7 34.9 51.7 34.8 51.3 34.8 50.2 35.1 49.7 35.1 49.6 35.2 49.7 35.2 49.6S35.5 49.2 35.6 49.1H35.8C35.9 49 35.9 48.9 36.1 48.8S36.7 48.5 36.9 48.3C37.2 48 37.3 47.7 37.7 47.5 37.8 47.5 37.8 47.4 37.9 47.4 38 47.3 38.1 47.3 38.2 47.2S38.4 47.1 38.5 47 38.8 46.9 38.8 46.9C38.9 46.8 38.9 46.6 39.1 46.6 39.2 46.6 39.3 46.4 39.4 46.4S39.6 46.2 39.7 46.2 40 45.9 40.2 45.8C40.4 45.6 40.7 45.5 41 45.3S41.9 44.7 42.4 44.3C42.5 44.3 42.4 44.2 42.5 44.2S42.7 44 42.9 44C43 44 43.1 43.8 43.2 43.8S43.5 43.7 43.6 43.6C44.2 43.2 45.2 42.9 44.7 42 44.7 41.9 44.6 42 44.6 41.9 44.6 41.7 44 41.3 43.8 41.1L43.2 40.5C42.9 40.3 42.6 40.3 42.4 40.1 42.3 39.8 41.9 39.5 41.7 39.2 41.6 39.1 41.5 38.9 41.4 38.7 41.3 38.6 41 38.3 40.8 38.2 40.7 38.1 40.3 37.8 40.1 37.7 40 37.7 39.9 37.7 39.8 37.6L39.7 37.4C39.6 37.3 39.5 37.3 39.3 37.2 39.2 37.1 39.1 37.1 39 37L38.8 36.8C38.6 36.7 38.4 36.5 38.2 36.4L38.1 36.2C38 36.1 37.9 36.1 37.7 36L37.6 35.8C37.5 35.7 37.4 35.7 37.2 35.6L37.1 35.4C37 35.3 36.8 35.3 36.7 35.2L36.3 34.8C36.2 34.7 36.3 34.6 36.2 34.5 36.2 34.5 36 34.5 36 34.4 35.9 34.2 35.8 34.1 35.7 33.9 35.6 33.8 35.4 33.7 35.3 33.6S35.3 33.4 35.2 33.3 34.7 33 34.6 32.8C34.5 32.7 34.6 32.6 34.5 32.5L34.3 32.4C34.2 32.3 34.2 32.2 34.2 32.1L34.1 31.7C33.8 31.5 34 29.6 34.1 29.2 34.1 29.1 34.2 29.2 34.2 29.1S34.4 28.9 34.5 28.8 34.7 28.6 34.9 28.5C35 28.5 35 28.4 35.1 28.4S35.5 28.1 35.7 28.1C35.8 28.1 35.9 27.9 36 27.9S36.3 27.7 36.6 27.7C37.6 27.6 38.3 28.3 39.4 28.1L39.7 28.4C40.2 28.8 40.7 29.4 41.3 29.9 41.6 30.1 41.8 30.4 42.1 30.6 42.2 30.7 42.3 30.7 42.4 30.8 42.4 30.8 42.8 31.2 42.9 31.2L43.1 31.3 43.2 31.5H43.4C43.5 31.6 43.5 31.7 43.6 31.8H43.8C43.9 31.9 43.9 32 44.1 32.1S44.6 32.4 44.8 32.6C44.9 32.7 45 32.7 45.1 32.8L45.2 33H45.4C45.5 33.1 45.5 33.2 45.6 33.3H45.8C45.9 33.4 46.2 33.8 46.5 33.8 46.9 33.3 46.8 32.8 46.9 32.1 47 30.4 46.8 28 47.1 26.4 47.1 26.2 47.2 25.9 47.3 25.7 47.3 25.6 47.3 25.4 47.4 25.3 47.4 25.2 47.6 25.2 47.6 25.1 47.8 24.8 48.1 24.5 48.4 24.3 48.5 24.2 48.6 24 48.7 24 48.8 23.9 49.1 23.9 49.3 23.9 49.4 23.9 49.5 23.7 49.5 23.7H49.8C50.1 23.6 50.3 23.6 50.9 23.7 51.2 23.7 51.4 23.7 51.6 23.8 51.6 23.8 51.6 23.9 51.7 23.9S52.6 24.6 52.6 24.8C52.6 24.8 52.7 24.9 52.7 25 52.8 25.2 52.8 25.3 52.9 25.5 52.9 25.6 53 25.7 53 25.8 53.1 26.1 53.3 27.5 53.2 28.2 53.1 28.7 53.1 29.9 53.1 30.8 52.8 32.1 52.8 33.8 52.9 35.3" fill="#2cb3b2" data-fill-palette-color="accent"></path></svg></g></svg></g></svg></g><defs></defs></svg><rect width="395.52" height="195.2022189412425" fill="none" stroke="none" visibility="hidden"></rect></g></svg></g></svg>